<?xml version="1.0" standalone="no"?>
<!DOCTYPE svg PUBLIC "-//W3C//DTD SVG 20010904//EN"
 "http://www.w3.org/TR/2001/REC-SVG-20010904/DTD/svg10.dtd">
<svg version="1.0" xmlns="http://www.w3.org/2000/svg"
 width="136.000000pt" height="135.000000pt" viewBox="0 0 136.000000 135.000000"
 preserveAspectRatio="xMidYMid meet">

<g transform="translate(0.000000,135.000000) scale(0.100000,-0.100000)"
fill="#000000" stroke="none">
<path d="M266 1205 c-54 -19 -122 -89 -141 -144 -22 -66 -22 -738 0 -802 60
-170 263 -210 484 -94 l66 35 66 -35 c118 -62 265 -83 347 -49 47 19 97 67
125 119 21 39 22 50 22 415 0 339 -2 380 -18 422 -22 57 -89 119 -145 136 -60
18 -754 16 -806 -3z m819 -63 c22 -13 52 -39 65 -59 l25 -37 3 -374 c3 -366 2
-375 -19 -419 -56 -116 -217 -133 -393 -41 -86 45 -203 165 -244 249 -30 61
-57 190 -48 221 3 7 7 25 10 40 15 68 102 128 186 128 87 0 146 -34 182 -105
40 -78 8 -255 -64 -349 -14 -18 -16 -18 -46 10 l-32 29 32 64 c25 49 33 81 36
132 4 65 3 70 -26 99 -55 54 -159 35 -182 -34 -26 -79 28 -222 118 -312 127
-127 317 -182 379 -109 23 26 23 28 23 375 0 207 -4 359 -10 375 -19 51 -49
55 -405 55 -346 0 -380 -4 -404 -48 -7 -14 -11 -141 -11 -377 l0 -357 31 -30
c29 -29 33 -30 90 -24 34 3 88 17 122 31 l62 25 30 -30 c29 -29 29 -30 10 -45
-34 -25 -127 -57 -202 -68 -64 -10 -78 -9 -119 9 -27 11 -60 35 -78 57 l-31
39 -3 384 c-3 367 -2 385 17 423 22 42 57 71 106 89 20 7 151 10 390 9 356 -2
360 -2 400 -25z m-55 -141 c14 -27 14 -655 0 -682 -8 -14 -21 -19 -49 -19 -43
0 -137 26 -146 40 -3 5 12 47 34 92 98 200 70 372 -71 444 -62 31 -170 37
-228 12 -162 -70 -197 -271 -84 -477 19 -35 34 -65 32 -66 -40 -34 -167 -57
-193 -35 -13 11 -15 60 -15 349 0 249 3 340 12 349 9 9 101 12 355 12 328 0
343 -1 353 -19z m-307 -314 c20 -29 -29 -207 -53 -192 -16 10 -50 116 -50 156
0 32 4 41 23 49 26 11 68 4 80 -13z"/>
</g>
</svg>
